<?xml version="1.0" standalone="no"?>
<!DOCTYPE svg PUBLIC "-//W3C//DTD SVG 20010904//EN"
 "http://www.w3.org/TR/2001/REC-SVG-20010904/DTD/svg10.dtd">
<svg version="1.0" xmlns="http://www.w3.org/2000/svg"
 width="100.000000pt" height="100.000000pt" viewBox="0 0 100.000000 100.000000"
 preserveAspectRatio="xMidYMid meet">

<g transform="translate(0.000000,100.000000) scale(0.100000,-0.100000)"
fill="#000000" stroke="none">
<path d="M140 500 l0 -460 260 0 c253 0 260 1 260 20 0 19 -7 20 -240 20
l-240 0 0 420 0 420 320 0 320 0 0 -270 c0 -263 0 -270 20 -270 20 0 20 7 20
290 l0 290 -360 0 -360 0 0 -460z"/>
<path d="M323 833 c-16 -6 -17 -85 -2 -100 16 -16 5 -39 -27 -55 -57 -27 -41
-38 55 -38 74 0 89 3 85 14 -3 8 -19 20 -36 27 -25 10 -29 16 -23 38 18 71 18
94 -1 108 -18 13 -30 15 -51 6z"/>
<path d="M545 789 c-14 -22 14 -30 101 -27 71 2 89 6 89 18 0 12 -18 16 -92
18 -60 2 -94 -1 -98 -9z"/>
<path d="M545 689 c-14 -22 14 -30 101 -27 71 2 89 6 89 18 0 12 -18 16 -92
18 -60 2 -94 -1 -98 -9z"/>
<path d="M265 489 c-15 -24 17 -29 161 -27 125 3 149 5 149 18 0 13 -25 15
-152 18 -103 2 -154 -1 -158 -9z"/>
<path d="M645 490 c-12 -19 10 -32 51 -28 27 2 39 8 39 18 0 19 -79 27 -90 10z"/>
<path d="M265 369 c-15 -23 16 -30 131 -27 98 2 119 6 119 18 0 12 -21 15
-122 18 -81 2 -124 -1 -128 -9z"/>
<path d="M700 170 l0 -170 150 0 150 0 0 170 0 170 -150 0 -150 0 0 -170z
m260 100 l0 -30 -110 0 -110 0 0 30 0 30 110 0 110 0 0 -30z m0 -100 l0 -30
-110 0 -110 0 0 30 0 30 110 0 110 0 0 -30z m0 -100 l0 -30 -110 0 -110 0 0
30 0 30 110 0 110 0 0 -30z"/>
<path d="M265 249 c-15 -24 17 -29 161 -27 125 3 149 5 149 18 0 13 -25 15
-152 18 -103 2 -154 -1 -158 -9z"/>
</g>
</svg>
