<?xml version="1.0" standalone="no"?>
<!DOCTYPE svg PUBLIC "-//W3C//DTD SVG 20010904//EN"
 "http://www.w3.org/TR/2001/REC-SVG-20010904/DTD/svg10.dtd">
<svg version="1.0" xmlns="http://www.w3.org/2000/svg"
 width="1024.000000pt" height="1024.000000pt" viewBox="0 0 1024.000000 1024.000000"
 preserveAspectRatio="xMidYMid meet">

<g transform="translate(0.000000,1024.000000) scale(0.100000,-0.100000)"
fill="#000000" stroke="none">
<path d="M3397 7933 c-20 -43 -58 -130 -85 -193 -250 -582 -733 -1698 -1004
-2320 -581 -1329 -848 -1951 -843 -1960 10 -16 872 -13 882 3 4 6 116 269 248
582 l241 570 759 5 c671 4 760 7 758 20 -2 8 -57 143 -124 300 -66 157 -134
318 -151 358 l-30 72 -434 0 c-253 0 -434 4 -434 9 0 5 31 85 69 178 39 92
181 438 316 768 136 330 251 608 257 618 5 10 16 17 25 15 15 -3 128 -261 359
-818 132 -317 160 -380 173 -380 5 0 59 55 120 123 l111 122 0 193 0 193 100
174 c55 96 100 179 100 184 0 10 -38 100 -235 556 -221 509 -296 679 -307 692
-8 10 -105 13 -423 13 l-412 0 -36 -77z"/>
<path d="M4828 8005 c-4 -4 14 -50 39 -103 24 -54 101 -221 170 -372 68 -151
131 -285 139 -297 l14 -22 797 -3 c896 -4 841 0 1003 -80 311 -156 450 -584
294 -903 -110 -226 -351 -364 -636 -366 -43 0 -80 -4 -83 -9 -2 -4 7 -41 21
-81 50 -143 54 -189 54 -638 l0 -417 88 -155 c49 -85 166 -293 261 -464 96
-170 216 -385 268 -477 l95 -168 473 0 c259 0 475 3 478 6 7 7 -15 48 -108
199 -125 204 -420 684 -491 800 -41 66 -161 259 -268 430 l-194 310 72 26
c193 71 402 215 533 368 174 205 275 426 325 716 17 103 20 147 15 315 -8 309
-64 505 -205 721 -199 305 -513 516 -905 609 -223 53 -223 53 -1267 57 -537 2
-978 1 -982 -2z"/>
<path d="M5425 6834 c-101 -13 -161 -30 -244 -71 -126 -60 -220 -152 -280
-274 -60 -122 -72 -195 -76 -458 l-3 -223 -58 -24 c-70 -28 -135 -90 -166
-158 l-23 -51 0 -590 0 -590 26 -55 c39 -82 99 -144 177 -182 l67 -33 664 -3
c743 -3 723 -5 816 66 32 24 61 59 84 102 l36 65 0 620 c0 615 0 620 -21 660
-12 22 -39 57 -60 79 -37 38 -123 86 -156 86 -15 0 -17 26 -21 253 -4 259 -6
273 -52 382 -49 114 -188 259 -307 319 -113 56 -298 93 -403 80z m188 -353
c98 -34 183 -105 226 -189 32 -63 42 -147 39 -327 l-3 -170 -368 -3 -369 -2 4
202 c4 225 14 270 78 363 84 122 250 175 393 126z m-8 -1119 c93 -48 129 -107
130 -207 0 -59 -4 -78 -27 -116 -15 -26 -42 -59 -60 -74 l-32 -27 -1 -168 c0
-213 2 -210 -128 -210 -131 0 -127 -6 -127 202 l0 168 -41 41 c-54 54 -79 110
-79 179 0 97 50 171 145 217 41 20 61 23 115 20 39 -2 81 -12 105 -25z"/>
<path d="M5050 3851 c0 -5 42 -98 94 -205 l95 -196 480 0 c290 0 482 4 486 9
3 6 -38 98 -92 205 l-98 196 -482 0 c-293 0 -483 -4 -483 -9z"/>
<path d="M4340 2769 c-355 -33 -661 -159 -855 -354 -70 -70 -135 -154 -135
-175 0 -7 578 -10 2073 -7 1953 3 2076 4 2147 21 278 66 474 207 614 440 20
33 36 66 36 73 0 11 -339 13 -1892 12 -1041 -1 -1936 -6 -1988 -10z"/>
</g>
</svg>
